<?xml version="1.0" standalone="no"?><!-- Generator: Gravit.io --><svg xmlns="http://www.w3.org/2000/svg" xmlns:xlink="http://www.w3.org/1999/xlink" style="isolation:isolate" viewBox="0 0 512 512" width="512" height="512"><path d=" M 256 0 L 0 64 L 0 384 L 256 512 L 512 384 L 512 64 L 256 0 Z  M 256 32 L 323.2 48 L 134.39999999999998 108.8 L 60.79999999999998 83.19999999999999 L 256 32 Z  M 256 476.8 L 32 364.8 L 32 105.60000000000002 L 128 137.60000000000002 L 128 246.40000000000003 L 160 256.00000000000006 L 160 150.40000000000006 L 256 182.40000000000006 L 256 476.8 Z  M 272 153.6 L 185.6 124.8 L 384 64 L 460.8 83.2 L 272 153.6 Z " fill-rule="evenodd" fill="rgb(209,71,71)"/><g transform="matrix(0.9358526212531869,0.35239164475557455,-0.35239164475557455,0.9358526212531869,62.23568396539559,253.18722911765235)"><text transform="matrix(1,0,0,1,0,89.47200000000001)" style="font-family:&quot;Ubuntu&quot;;font-weight:700;font-size:96px;font-style:normal;fill:#d14747;stroke:none;">Gulp</text></g><path d=" M 448.58985277467116 323.7980713513619 L 448.3056451705844 322.1879272267667 C 447.95333730533054 320.19161806506077 447.4402545951512 318.21038024678126 446.78305259546596 316.29523581525075 C 446.1257196268689 314.3797097287917 445.3131350112583 312.49783636015377 444.36250068331503 310.70471623976897 L 443.5994358609862 309.25804382078206 L 447.90437158457803 301.6304921830245 C 448.7742718996842 300.08545651305656 448.4334105360245 298.1138014491814 447.09449369758244 296.94451260018275 L 436.5720386115134 287.78134474980544 C 435.5607770883104 286.8980603295072 434.1460150109567 286.62036650667307 432.87548575376957 287.0563620142363 C 432.4953574449205 287.18680705044324 432.1373403785609 287.3791999021823 431.81424609792896 287.6248781704292 L 424.83267477501107 292.948422037128 L 423.29352374706343 292.3840797130661 C 419.4622578452626 290.9830942715366 415.46185183208183 290.1968618122443 411.40427778159057 290.04710829671245 L 409.76750777341135 289.9889358614381 L 405.3131924187833 282.44245567982705 C 404.41096304871945 280.914706358408 402.53355590248253 280.22242596438747 400.85312925201845 280.79908208328226 L 387.64901368851486 285.3302135267079 C 385.9682053831222 285.9070006145146 384.9127253722623 287.60615875106447 385.13957899129497 289.3686565687894 L 386.25707405368735 298.0589220130457 L 385.00256854379006 299.1109725131549 C 381.8916265363752 301.71854488758083 379.2179130966652 304.7959249872394 377.05620512776284 308.25644877394177 L 376.1862192777072 309.64708521469987 L 367.4046787411049 309.7328193454103 C 367.0007203828238 309.73663685424594 366.60128338489716 309.8045989474664 366.2207734211196 309.93517495258516 C 364.9532974033609 310.37012270885356 364.00637878276507 311.45825215824254 363.7463252353099 312.77524215653256 L 361.0679389806717 326.47908282354956 C 360.7309865241785 328.2209042971057 361.6736952065684 329.98346951959144 363.31241273690864 330.6676465319406 L 371.3919175073714 334.04449367016673 L 371.6771503591389 335.6551391667953 C 372.030187778829 337.6473585895849 372.5411227801557 339.63103980996164 373.1985867176647 341.54694755134926 C 373.8578842199396 343.4681984617368 374.6726277962097 345.34890436197503 375.6190076609038 347.1370854719025 L 376.3832174480183 348.58336498415383 L 372.07889156175776 356.2077211617641 C 371.20622244866075 357.757119760279 371.5459163439208 359.72661586349466 372.88469096164397 360.8942471238672 L 383.41050623219326 370.062234267597 C 384.42149456576556 370.94347944434054 385.83511167833353 371.2215661739102 387.10296935102076 370.78648744873004 C 387.48538758944113 370.65525659905194 387.839719075427 370.46455509136 388.1597601166304 370.2199245744079 L 395.14817872464846 364.8914713999007 L 396.6879733453484 365.4564460649078 C 400.5182252512754 366.8582060681015 404.5186312644562 367.64443852739373 408.57849524451876 367.7934062294545 L 410.2142625086311 367.8536291600905 L 414.6674328984735 375.40050224843714 C 415.57103541572576 376.92479417188514 417.448191875946 377.6175871897461 419.12836784039337 377.0414436946917 L 432.3321017489684 372.5104432201779 C 434.01481832900384 371.933001287812 435.0699279367422 370.2352500538715 434.841820887626 368.4753153553486 L 433.7245540076363 359.7819854198568 L 434.9803354512311 358.7299236679407 C 438.08936918400315 356.123006138074 440.7642275884989 353.0452331316798 442.92618624341793 349.584196721137 L 443.795790438545 348.19369124929074 L 452.5766986342021 348.10860071133266 C 452.98014436864275 348.1045325164803 453.3791997116408 348.03670139217166 453.7604729852755 347.9058634492292 C 455.02756734810555 347.4710466618726 455.9760125884157 346.38239333683623 456.2337762062995 345.06618915201733 L 458.91382004956375 331.36220626428144 C 459.25064153714516 329.62000313579676 458.30947072627646 327.8581899713612 456.66961948295756 327.1756817994451 L 448.58985277467116 323.7980713513619 Z  M 415.3262741685306 344.4665891231798 C 406.7531595082138 347.4085437901645 397.3848391074765 342.8281511135783 394.44327734722737 334.2561814180472 C 391.5018465558901 325.6845933774447 396.08377710399753 316.31702503475753 404.6568917643143 313.3750703677728 C 413.2277164950597 310.4339015142592 422.5948919310113 315.01468709758103 425.5363227223486 323.5862751381835 C 428.4778844825978 332.15824483371466 423.897098899276 341.5254202696662 415.3262741685306 344.4665891231798 Z " fill-rule="evenodd" fill="rgb(255,255,255)"/><path d=" M 478.96095893758445 262.8351001657703 L 476.56724823634704 261.99578007778666 C 476.43593947748883 261.2861876853405 476.231543346556 260.5799194822003 475.9473885345883 259.88737016589323 C 475.6629605329899 259.19278160603153 475.3140071985876 258.5463580900645 474.90907841233565 257.94815182425504 L 476.0256789379851 255.67002897382503 C 476.209181102216 255.2947883226393 476.1033627009442 254.84221938073068 475.7736762476948 254.58634724054488 L 472.70723951761875 252.21304304986103 C 472.3758954757432 251.95731313039408 471.90987678386 251.97048254474367 471.59351817676765 252.24200488283503 L 469.66220036362154 253.90129055724918 C 468.2922899128886 253.4136766051421 466.8186679213618 253.20438678922352 465.3353164752052 253.3098524908279 L 463.92037410373655 251.2029670649767 C 463.6875033259558 250.85628083587855 463.2428842931927 250.7204760989299 462.85496626698387 250.8791901562367 L 459.2691211196625 252.34775256432283 C 458.8807017214202 252.50749186931046 458.65870146940455 252.91599366482558 458.73582733368266 253.32721695830966 L 459.2072377193406 255.82102187819683 C 458.0734427256577 256.7860032750651 457.1704990502866 257.96995781417235 456.5361252600664 259.28016809124483 L 453.99871531830104 259.45171246087534 C 453.58132838041547 259.481041444627 453.24201512508375 259.7975549635703 453.18646638843126 260.2125003123774 L 452.6634808561101 264.05388804272803 C 452.6078011505457 264.4684517366066 452.8510675323631 264.8653219892934 453.24606737164083 265.00322313534116 L 455.63978932468524 265.8438191570223 C 455.7691785570936 266.5527904603302 455.97471965281215 267.25866575673484 456.2602813673892 267.9515854761635 C 456.54356440420196 268.6465669427607 456.89291064533984 269.29413542351347 457.3006307331966 269.890530628171 L 456.1807037784879 272.16766198634116 C 455.9973325831688 272.54328429245544 456.10342417407134 272.99789247791875 456.4356512429088 273.25246618079296 L 459.4991431988543 275.62464791030516 C 459.8312505505869 275.8801158919484 460.29651718442 275.86848434912 460.6133771635458 275.5959367633478 L 462.5440738875536 273.9385706153835 C 463.9152602719841 274.4261733156836 465.3885006085824 274.635594100514 466.87172108582706 274.5297467439811 L 468.2871760811362 276.636882855849 C 468.51991589000505 276.9831874300186 468.9663122284991 277.1179556674794 469.3527036349937 276.95976548582007 L 472.9390501543485 275.4901778300531 C 473.3265865256287 275.33159474165814 473.5488487154681 274.92385625600014 473.47082857242106 274.5125132454112 L 473.0019588023512 272.01740988821246 C 474.13308221153414 271.05334527372713 475.03538229415295 269.8687583936746 475.6700180221969 268.55931142645926 L 478.20895458367653 268.38724318118136 C 478.62494587075963 268.3588197280057 478.96398593646063 268.0402669655077 479.02158516847487 267.62632436076746 L 479.54252020543436 263.78393388635 C 479.5983421317176 263.3710277810975 479.35520671881204 262.9745391833393 478.96095893758445 262.8351001657703 Z  M 467.89575080375687 268.2946965189244 C 465.48382219741444 269.281923005844 462.7168736135967 268.1244616190211 461.72784731733213 265.71101764477135 C 460.7407517993243 263.2994706933575 461.89999049187827 260.53148561005196 464.31178812930887 259.54387746820373 C 466.7253630724704 258.5552328268677 469.49194125316654 259.71410111630007 470.4796803639266 262.1262804086592 C 471.4672997575818 264.53935397978734 470.30868215416615 267.3054195366431 467.89575080375687 268.2946965189244 Z " fill-rule="evenodd" fill="rgb(255,255,255)"/><path d=" M 451.64808656854206 252.12440587580733 L 450.3897125224876 245.4738453633494 C 450.2532437698042 244.75791830964357 449.63230954579245 244.23511638164118 448.9028193175326 244.22266409579862 L 444.4739800767237 244.15210853701112 C 443.86568088699477 243.05076946379467 443.1378377429417 241.99514573985024 442.28296381948417 241.00444388148304 C 441.4301066359673 240.01091696609 440.4929055262569 239.1333596094735 439.49237401503774 238.36712038887666 L 440.08428599059687 233.97821712131403 C 440.1813990662479 233.25550890706558 439.75560436204574 232.56293260763798 439.0681253988017 232.32233796944232 L 432.68138965761307 230.0867765966703 C 431.99325584980977 229.84427368383177 431.22716999565756 230.124228051832 430.85344663147913 230.74946217305538 L 428.57183065069705 234.5616972140377 C 426.0335966074924 234.5095602798624 423.47760758412613 234.97628730036132 421.0797930111057 235.97232155328675 L 417.57271804210995 233.26347836885708 C 416.9952083312894 232.81749349402165 416.18194124669253 232.84061569220336 415.6297860713462 233.31634101444908 L 410.5022961513669 237.72890800384477 C 409.94811298427294 238.20618244941875 409.8057414039303 239.00585175057182 410.1592183384404 239.6443239711089 L 412.3157732401204 243.51452715727098 C 410.97474564514044 245.73784565028873 410.1324222842379 248.19615010168144 409.80589929328346 250.7154940654614 L 405.6976554169523 252.40214354864293 C 405.02228057243053 252.68040475957716 404.63606162211926 253.3935401379844 404.77318521936195 254.11137546633307 L 406.02989042498325 260.7608022658123 C 406.165214212881 261.4771222262537 406.7878060255189 261.99978193353724 407.51779762581214 262.0112089716989 L 411.94549190183534 262.082157437222 C 412.5520137858333 263.1845330099263 413.2813835496006 264.23963285822333 414.13561388030587 265.2297023756453 C 414.9897469975203 266.22321803923126 415.9259341113569 267.1015499575119 416.927359901345 267.86790889521365 L 416.33594929781935 272.2557869150954 C 416.23757154027777 272.97978231484836 416.66336624447985 273.672358614276 417.3514775486692 273.9123096597194 L 423.7394892235554 276.1478597806844 C 424.42825537230397 276.38971910077066 425.19410179224644 276.1115532903084 425.56705059476076 275.4853051732112 L 427.8482849206142 271.6732011011407 C 430.38830752135686 271.7255774695257 432.9425192389922 271.2598869485147 435.34033381201266 270.2638526955892 L 438.84842277688216 272.97192131835476 C 439.42478752291703 273.4182990999258 440.23818557642585 273.39555855667265 440.7912237787341 272.91867701783417 L 445.91935729146564 268.5067423693838 C 446.47251521087884 268.02896655177636 446.6150177601333 267.22967890555185 446.26103945358983 266.59223193269565 L 444.1053675788718 262.72087252994083 C 445.4460135189231 260.49768500583497 446.2875735699686 258.03964249226595 446.6153724946206 255.520287276679 L 450.72247140616605 253.83403070023306 C 451.3974533439522 253.55462452451312 451.78379201136835 252.8405948673369 451.64808656854206 252.12440587580733 Z  M 433.5937387539081 259.3723636281846 C 430.1434956494779 262.34123816987966 424.92349960701154 261.9504845774063 421.95475603422824 258.50062312790476 C 418.98589274434016 255.05165595717213 419.3771477088469 249.83063466702487 422.8261148795795 246.86177137713673 C 426.2757143912574 243.89226449449635 431.4973792741569 244.28415179994838 434.46624256404505 247.733118970681 C 437.4347241990046 251.18221711032547 437.0428368935526 256.403881993225 433.5937387539081 259.3723636281846 Z " fill-rule="evenodd" fill="rgb(255,255,255)"/></svg>